<svg width="16" height="16" viewBox="0 0 16 16" fill="none" xmlns="http://www.w3.org/2000/svg">
<path fill-rule="evenodd" clip-rule="evenodd" d="M3.36181 1.73613C3.34256 0.800386 2.71892 0.0879211 1.7058 0.0879211C0.692415 0.0879211 0.0302734 0.800386 0.0302734 1.73613C0.0302734 2.65155 0.673165 3.38462 1.66704 3.38462H1.68629C2.71892 3.38462 3.36181 2.65155 3.36181 1.73613ZM3.36181 15.899V5.44249H0.129979V15.899H3.36181ZM8.63436 9.94137V15.899H5.38603C5.38603 15.899 5.43275 6.38042 5.38603 5.37939H8.63405L8.61069 6.7779C9.07695 6.04993 9.91667 4.98039 11.8297 4.98039C14.1629 4.98039 15.9121 6.50515 15.9121 9.78194V15.899H12.6585V9.94137C12.6585 8.50753 11.8537 7.77925 10.5705 7.77925C9.59089 7.77925 9.0075 8.43902 8.75117 9.07639C8.65741 9.30368 8.63436 9.62252 8.63436 9.94137Z" fill="#0078B5"/>
</svg>
