<svg width="22" height="22" viewBox="0 0 22 22" fill="none" xmlns="http://www.w3.org/2000/svg">
<path fill-rule="evenodd" clip-rule="evenodd" d="M19.2902 13.2805C19.3439 13.039 19.5585 12.878 19.8 12.878H22V9.12195H19.8C19.5585 9.12195 19.3439 8.96098 19.2902 8.71951C19.1024 8.02195 18.8341 7.37805 18.4854 6.73415C18.3512 6.51951 18.4049 6.25122 18.5659 6.09024L20.122 4.53415L17.439 1.90488L15.8829 3.46098C15.722 3.62195 15.4537 3.67561 15.239 3.54146C14.622 3.19268 13.9512 2.89756 13.2537 2.73659C13.0122 2.68293 12.8512 2.46829 12.8512 2.22683V0H9.12195V2.2C9.12195 2.44146 8.96098 2.6561 8.71951 2.70976C8.02195 2.89756 7.37805 3.16585 6.73415 3.51463C6.51951 3.64878 6.25122 3.59512 6.09024 3.43415L4.56098 1.90488L1.90488 4.56098L3.46098 6.11707C3.62195 6.27805 3.67561 6.54634 3.54146 6.76098C3.19268 7.37805 2.92439 8.04878 2.73659 8.74634C2.68293 8.98781 2.46829 9.14878 2.22683 9.14878H0V12.9049H2.2C2.44146 12.9049 2.6561 13.0659 2.70976 13.3073C2.89756 14.0049 3.16585 14.6488 3.51463 15.2927C3.64878 15.5073 3.59512 15.7756 3.43415 15.9366L1.90488 17.439L4.56098 20.0951L6.11707 18.539C6.22439 18.4317 6.35854 18.378 6.49268 18.378C6.57317 18.378 6.68049 18.4049 6.76098 18.4585C7.37805 18.8073 8.04878 19.0756 8.74634 19.2634C8.98781 19.3171 9.14878 19.5317 9.14878 19.7732V22H12.9049V19.8C12.9049 19.5585 13.0659 19.3439 13.3073 19.2902C14.0049 19.1024 14.6488 18.8341 15.2927 18.4854C15.5073 18.3512 15.7756 18.4049 15.9366 18.5659L17.4927 20.122L20.1488 17.4659L18.5927 15.9098C18.4317 15.7488 18.378 15.4805 18.5122 15.2659C18.8073 14.622 19.1024 13.9512 19.2902 13.2805ZM11 15.8293C8.3439 15.8293 6.17073 13.6561 6.17073 11C6.17073 8.3439 8.3439 6.17073 11 6.17073C13.6561 6.17073 15.8293 8.3439 15.8293 11C15.8293 13.6561 13.6561 15.8293 11 15.8293ZM11 14.7561C13.0659 14.7561 14.7561 13.0659 14.7561 11C14.7561 8.93415 13.0659 7.2439 11 7.2439C8.93415 7.2439 7.2439 8.93415 7.2439 11C7.2439 13.0659 8.93415 14.7561 11 14.7561Z" fill="white"/>
</svg>
