<svg width="12" height="12" viewBox="0 0 12 12" fill="none" xmlns="http://www.w3.org/2000/svg">
<circle cx="6" cy="6" r="3" fill="#5F025B"/>
<g filter="url(#filter0_b_29_219)">
<path d="M11.6121 4.04182L8.01478 3.51815L6.40666 0.252619C6.36274 0.163211 6.29048 0.0908326 6.20122 0.0468381C5.97736 -0.0638577 5.70532 0.0283888 5.59339 0.252619L3.98528 3.51815L0.38791 4.04182C0.288731 4.05601 0.198053 4.10285 0.128627 4.17381C0.0446959 4.26021 -0.00155415 4.37646 3.98784e-05 4.49701C0.0016339 4.61756 0.0509416 4.73254 0.137128 4.81669L2.73987 7.35844L2.12496 10.9475C2.11054 11.031 2.11976 11.1169 2.15159 11.1954C2.18341 11.2739 2.23655 11.3419 2.305 11.3917C2.37344 11.4415 2.45444 11.4711 2.53882 11.4771C2.6232 11.4831 2.70757 11.4654 2.78238 11.4258L6.00003 9.7313L9.21768 11.4258C9.30552 11.4726 9.40754 11.4882 9.5053 11.4712C9.75183 11.4286 9.9176 11.1945 9.8751 10.9475L9.26019 7.35844L11.8629 4.81669C11.9338 4.74715 11.9805 4.65633 11.9947 4.55698C12.0329 4.30863 11.8601 4.07872 11.6121 4.04182Z" fill="#5F025B"/>
</g>
<defs>
<filter id="filter0_b_29_219" x="-4.81" y="-4.81" width="21.62" height="21.0983" filterUnits="userSpaceOnUse" color-interpolation-filters="sRGB">
<feFlood flood-opacity="0" result="BackgroundImageFix"/>
<feGaussianBlur in="BackgroundImageFix" stdDeviation="2.405"/>
<feComposite in2="SourceAlpha" operator="in" result="effect1_backgroundBlur_29_219"/>
<feBlend mode="normal" in="SourceGraphic" in2="effect1_backgroundBlur_29_219" result="shape"/>
</filter>
</defs>
</svg>
