<svg width="18" height="14" viewBox="0 0 18 14" fill="none" xmlns="http://www.w3.org/2000/svg">
<path fill-rule="evenodd" clip-rule="evenodd" d="M14.7857 0.63913C14.9571 0.63913 15.1215 0.707585 15.2422 0.829286C15.3639 0.949993 15.4323 1.1143 15.4323 1.28571C15.4323 1.45712 15.3639 1.62144 15.2422 1.74214L3.67074 13.3136C3.55003 13.4353 3.38572 13.5037 3.21431 13.5037C3.0429 13.5037 2.87859 13.4353 2.75788 13.3136C2.63618 13.1929 2.56772 13.0286 2.56772 12.8571C2.56772 12.6857 2.63618 12.5214 2.75788 12.4007L3.70288 11.4621C2.03376 10.5473 0.739092 9.07518 0.0450219 7.30286C0.0146423 7.22952 -0.000661742 7.15081 2.19359e-05 7.07143V7.00714C-0.000661742 6.92776 0.0146423 6.84906 0.0450219 6.77571C1.28574 3.43929 4.82788 1.28571 9.00002 1.28571C10.4027 1.28192 11.793 1.5482 13.095 2.07L14.3293 0.829286C14.45 0.707585 14.6143 0.63913 14.7857 0.63913ZM9.00002 3.21429C6.86978 3.21429 5.14288 4.94119 5.14288 7.07143C5.14346 7.86706 5.39298 8.64258 5.85645 9.28929L6.79502 8.35714C6.24603 7.35518 6.42398 6.11114 7.23186 5.30327C8.03973 4.49539 9.28377 4.31744 10.2857 4.86643L11.2307 3.92786C10.5805 3.46182 9.80005 3.21218 9.00002 3.21429ZM8.35716 9.55286L11.5072 6.40286C11.5577 6.62195 11.5793 6.84672 11.5715 7.07143C11.5715 8.49159 10.4202 9.64286 9.00002 9.64286C8.78279 9.64013 8.56679 9.60989 8.35716 9.55286ZM18 7.11V7.00714C18 7.00374 18 7.00034 18 6.99694C17.9994 6.92102 17.9841 6.84591 17.955 6.77571C17.3503 5.22795 16.2814 3.90529 14.895 2.98929L12.4779 5.40643C12.7292 5.92538 12.8589 6.49481 12.8572 7.07143C12.8572 9.20167 11.1303 10.9286 9.00002 10.9286C8.4259 10.9404 7.85659 10.8217 7.33502 10.5814L5.59288 12.3236C6.71077 12.6811 7.8778 12.8611 9.05145 12.8571C13.2043 12.8571 16.7143 10.6843 17.955 7.34143C17.9854 7.26809 18.0007 7.18938 18 7.11Z" fill="#B0B0C3"/>
</svg>
